HIERARCHY
ROOT Hips
{
	OFFSET 0.000000 0.000000 0.000000
	CHANNELS 6 Xposition Yposition Zposition Zrotation Yrotation Xrotation 
	JOINT LHipJoint
	{
		OFFSET 0.000000 0.000000 0.000000
		CHANNELS 3 Zrotation Yrotation Xrotation
		JOINT LeftUpLeg
		{
			OFFSET 1.363060 -1.794630 0.839290
			CHANNELS 3 Zrotation Yrotation Xrotation
			JOINT LeftLeg
			{
				OFFSET 2.448110 -6.726130 0.000000
				CHANNELS 3 Zrotation Yrotation Xrotation
				JOINT LeftFoot
				{
					OFFSET 2.562200 -7.039590 0.000000
					CHANNELS 3 Zrotation Yrotation Xrotation
					JOINT LeftToeBase
					{
						OFFSET 0.157640 -0.433110 2.322550
						CHANNELS 3 Zrotation Yrotation Xrotation
						End Site
						{
							OFFSET 0.000000 0.000000 0.000000
						}
					}
				}
			}
		}
	}
	JOINT RHipJoint
	{
		OFFSET 0.000000 0.000000 0.000000
		CHANNELS 3 Zrotation Yrotation Xrotation
		JOINT RightUpLeg
		{
			OFFSET -1.305520 -1.794630 0.839290
			CHANNELS 3 Zrotation Yrotation Xrotation
			JOINT RightLeg
			{
				OFFSET -2.542530 -6.985550 0.000000
				CHANNELS 3 Zrotation Yrotation Xrotation
				JOINT RightFoot
				{
					OFFSET -2.568260 -7.056230 0.000000
					CHANNELS 3 Zrotation Yrotation Xrotation
					JOINT RightToeBase
					{
						OFFSET -0.164730 -0.452590 2.363150
						CHANNELS 3 Zrotation Yrotation Xrotation
						End Site
						{
							OFFSET 0.000000 0.000000 0.000000
						}
					}
				}
			}
		}
	}
	JOINT LowerBack
	{
		OFFSET 0.000000 0.000000 0.000000
		CHANNELS 3 Zrotation Yrotation Xrotation
		JOINT Spine
		{
			OFFSET 0.028270 2.035590 -0.193380
			CHANNELS 3 Zrotation Yrotation Xrotation
			JOINT Spine1
			{
				OFFSET 0.056720 2.048850 -0.042750
				CHANNELS 3 Zrotation Yrotation Xrotation
				JOINT Neck
				{
					OFFSET 0.000000 0.000000 0.000000
					CHANNELS 3 Zrotation Yrotation Xrotation
					JOINT Neck1
					{
						OFFSET -0.054170 1.746240 0.172020
						CHANNELS 3 Zrotation Yrotation Xrotation
						JOINT Head
						{
							OFFSET 0.104070 1.761360 -0.123970
							CHANNELS 3 Zrotation Yrotation Xrotation
							End Site
							{
								OFFSET 0.000000 0.000000 0.000000
							}
						}
					}
				}
				JOINT LeftShoulder
				{
					OFFSET 0.000000 0.000000 0.000000
					CHANNELS 3 Zrotation Yrotation Xrotation
					JOINT LeftArm
					{
						OFFSET 3.362410 1.200890 -0.311210
						CHANNELS 3 Zrotation Yrotation Xrotation
						JOINT LeftForeArm
						{
							OFFSET 4.983000 -0.000000 -0.000000
							CHANNELS 3 Zrotation Yrotation Xrotation
							JOINT LeftHand
							{
								OFFSET 3.483560 -0.000000 -0.000000
								CHANNELS 3 Zrotation Yrotation Xrotation
								JOINT LeftFingerBase
								{
									OFFSET 0.000000 0.000000 0.000000
									CHANNELS 3 Zrotation Yrotation Xrotation
									JOINT LeftHandIndex1
									{
										OFFSET 0.715260 -0.000000 -0.000000
										CHANNELS 3 Zrotation Yrotation Xrotation
										End Site
										{
											OFFSET 0.000000 0.000000 0.000000
										}
									}
								}
								JOINT LThumb
								{
									OFFSET 0.000000 0.000000 0.000000
									CHANNELS 3 Zrotation Yrotation Xrotation
									End Site
									{
										OFFSET 0.000000 0.000000 0.000000
									}
								}
							}
						}
					}
				}
				JOINT RightShoulder
				{
					OFFSET 0.000000 0.000000 0.000000
					CHANNELS 3 Zrotation Yrotation Xrotation
					JOINT RightArm
					{
						OFFSET -3.136600 1.374050 -0.404650
						CHANNELS 3 Zrotation Yrotation Xrotation
						JOINT RightForeArm
						{
							OFFSET -5.241900 -0.000000 -0.000000
							CHANNELS 3 Zrotation Yrotation Xrotation
							JOINT RightHand
							{
								OFFSET -3.444170 -0.000000 -0.000000
								CHANNELS 3 Zrotation Yrotation Xrotation
								JOINT RightFingerBase
								{
									OFFSET 0.000000 0.000000 0.000000
									CHANNELS 3 Zrotation Yrotation Xrotation
									JOINT RightHandIndex1
									{
										OFFSET -0.622530 -0.000000 -0.000000
										CHANNELS 3 Zrotation Yrotation Xrotation
										End Site
										{
											OFFSET 0.000000 0.000000 0.000000
										}
									}
								}
								JOINT RThumb
								{
									OFFSET 0.000000 0.000000 0.000000
									CHANNELS 3 Zrotation Yrotation Xrotation
									End Site
									{
										OFFSET 0.000000 0.000000 0.000000
									}
								}
							}
						}
					}
				}
			}
		}
	}
}
MOTION
Frames: 11
Frame Time: 0.008333
-5.835751 14.767988 19.850901 -130.487444 84.568261 -117.572514 5.935369 4.860748 -7.223951 -41.190158 -11.357086 -26.821015 -12.210963 9.000742 46.734532 12.336409 1.199392 -7.599584 0.155734 -0.486850 0.081672 15.684732 11.699971 -5.550150 -22.951377 -8.602789 -24.981679 -12.288739 -22.101972 87.798892 -3.599875 -11.415882 -1.188812 2.043656 -10.469646 -6.175891 -10.512126 -1.900933 16.553677 4.568098 1.355477 -7.119340 2.132174 -0.278551 3.482038 0.775592 0.958443 -12.521187 5.106036 -0.451187 4.468101 -1.303636 -2.692807 14.447700 16.501433 2.546724 -0.974748 -82.845687 4.588108 12.777284 163.137577 -77.655631 -161.711244 -17.664836 20.741872 -6.078765 0.000001 -0.000001 0.000002 -0.000000 -0.000000 -0.000000 0.000000 -0.000000 0.000000 -7.013244 7.518446 3.376005 68.235346 28.350748 5.882451 -14.210678 74.467671 -10.656844 23.933642 -4.333252 -1.194174 0.000000 -0.000000 0.000000 0.000000 0.000000 0.000000 0.000000 -0.000000 0.000000 
-5.556111 14.736351 19.855405 -133.741852 83.956128 -120.588078 6.027433 4.816925 -7.547549 -41.250923 -10.892387 -26.009230 -12.551183 8.809087 47.909683 14.051861 1.453997 -8.189592 2.424884 -4.868855 -1.309034 16.038919 10.941199 -5.238785 -23.124804 -7.534494 -28.414648 -13.392495 -21.478991 88.899791 -6.386372 -12.834830 -1.098865 0.916001 -9.417217 -9.003011 -10.228220 -1.723380 16.627160 4.558476 1.102123 -7.054058 2.832882 -0.602680 4.039994 0.165695 0.987057 -12.945021 5.035114 -0.269477 4.145875 -1.018743 -2.368556 14.555309 15.952890 2.378130 -0.781111 -83.416286 0.802352 12.131177 165.587747 -77.980200 -164.826937 -16.936425 21.333546 -6.126846 0.000001 -0.000001 0.000002 -0.000000 0.000000 -0.000000 0.000000 -0.000000 0.000000 -7.619766 6.775064 3.324492 67.547711 27.623939 3.876215 -10.748789 73.476475 -7.724673 24.646243 -3.806672 -1.017255 -0.000000 0.000000 0.000000 -0.000000 0.000000 0.000000 -0.000000 0.000000 0.000000 
-5.301817 14.715736 19.875375 -133.253932 84.503959 -119.727371 5.884121 4.326796 -7.410835 -41.195118 -9.809862 -26.478664 -12.393369 9.405609 48.659556 14.505611 0.835139 -8.588436 3.218834 -5.844131 -2.245255 16.208550 10.996122 -5.875372 -23.731006 -6.474805 -30.958542 -15.619786 -20.108551 89.597808 -7.300550 -13.429070 -0.745037 0.236409 -9.626698 -12.046120 -11.146688 -1.506187 16.770229 4.589821 1.249868 -7.030759 3.669421 -0.347485 3.925302 -0.449366 0.870257 -12.859827 4.994724 -0.183287 3.806983 -1.298179 -2.058729 13.813493 15.431001 1.847784 -0.463183 -83.893258 -2.713693 11.434959 167.848058 -78.368160 -167.777646 -15.742421 22.198373 -6.158082 0.000001 -0.000001 0.000002 -0.000000 0.000000 0.000000 -0.000000 0.000000 -0.000000 -8.224300 6.371469 3.152321 66.921686 26.304594 2.230950 -8.969761 72.255977 -6.022858 23.219819 -3.738473 -0.963350 -0.000000 0.000000 -0.000000 -0.000000 0.000000 -0.000000 -0.000000 0.000000 -0.000000 
-5.030180 14.708859 19.876877 -135.185840 84.298077 -121.284312 6.216042 4.258665 -7.445185 -41.615704 -8.922336 -25.962501 -12.138400 9.498598 48.867502 14.452912 0.220481 -8.873734 4.273375 -7.335729 -3.268401 16.650446 10.413697 -5.841063 -23.575992 -5.601722 -34.753800 -16.992626 -18.640562 90.030514 -7.668558 -12.340899 -1.340285 0.091584 -9.631070 -12.619130 -11.511612 -1.144414 16.600994 4.555383 1.385619 -7.006429 4.310029 -0.102456 3.798258 -0.779139 0.683188 -12.825654 5.114382 -0.224834 4.001468 -1.214009 -1.991069 13.431161 15.557139 1.063912 -0.001855 -84.685091 -6.566454 12.282622 168.003270 -77.789137 -167.203088 -14.849606 21.294117 -5.723946 0.000001 -0.000001 0.000002 0.000000 0.000000 0.000000 0.000000 0.000000 0.000000 -8.740979 5.182230 3.484857 66.992143 24.894150 -1.600487 -0.591274 72.875670 -2.426519 27.667039 -8.542167 -2.986095 0.000000 -0.000000 -0.000000 0.000000 -0.000000 -0.000000 0.000000 -0.000000 -0.000000 
-4.752508 14.710616 19.855255 -138.238017 83.491794 -124.060438 6.328002 4.250158 -7.763888 -41.805048 -7.848802 -24.881151 -12.002395 8.920638 49.252094 14.298525 -0.067079 -9.149941 4.999494 -7.966939 -4.279814 16.738376 9.407149 -5.489593 -22.942950 -4.324549 -38.579985 -17.724532 -17.879652 89.956361 -7.166492 -11.546174 -1.967292 -0.911181 -7.395005 -12.521619 -11.185458 -0.868051 16.574994 4.523204 1.258311 -7.045305 4.325150 -0.206121 3.746835 -0.620290 0.661465 -12.875529 5.260076 -0.265018 4.258011 -0.804462 -1.771398 13.094969 15.935854 0.501824 0.090219 -85.471052 -10.141355 13.291584 168.185484 -77.263607 -167.717274 -12.175805 22.199431 -5.465190 0.000001 -0.000001 0.000002 0.000000 0.000000 0.000000 0.000000 -0.000000 0.000000 -8.713621 4.435985 3.385369 67.038193 23.008083 -2.409693 -1.741388 73.514041 -2.652211 26.904395 -7.548131 -2.540216 -0.000000 0.000000 0.000000 0.000000 0.000000 0.000000 -0.000000 0.000000 0.000000 
-4.454550 14.727447 19.832883 -142.136177 82.169362 -127.474359 6.268147 4.182520 -8.187112 -41.288641 -7.665653 -23.448701 -12.173104 8.644237 49.302888 14.590360 -0.115112 -9.329421 4.085230 -3.571955 -6.289758 17.039934 8.231850 -4.813549 -22.233943 -3.599774 -42.798003 -19.264853 -16.924297 89.367491 -6.349861 -9.954314 -1.947319 -0.172158 -7.842163 -10.559372 -10.605922 -0.537661 16.319116 4.596882 1.159947 -7.136218 4.609530 -0.467599 3.806687 -0.669750 0.447135 -13.012962 5.357608 -0.398747 4.478889 -1.431767 -1.707376 13.000073 15.637984 -0.339474 0.314960 -86.063609 -14.081995 14.249878 169.455026 -77.057087 -167.861260 -13.507130 21.009863 -5.396861 0.000001 -0.000001 0.000002 0.000000 -0.000000 0.000000 0.000000 -0.000000 -0.000000 -8.583942 3.473819 2.846251 66.878394 20.609361 -2.634251 -4.931893 74.029900 -3.964291 23.713706 -6.372502 -1.927403 0.000000 -0.000000 0.000000 -0.000000 0.000000 0.000000 0.000000 -0.000000 0.000000 
-4.165000 14.743634 19.790240 -144.519094 80.681162 -129.677224 5.914587 4.143065 -8.694364 -40.509650 -7.195327 -21.711064 -12.472071 7.931917 49.570411 14.758393 0.176356 -9.531178 6.872012 -8.628615 -7.600060 16.838399 7.042924 -4.309428 -20.964588 -2.791111 -46.290321 -20.241674 -16.091529 88.271233 -4.787758 -9.010523 -1.691815 -0.313335 -7.339485 -10.273678 -9.567248 -0.164555 16.458681 4.607723 0.935417 -7.277660 4.676538 -0.938981 3.856972 -0.674716 0.265987 -13.185513 5.466536 -0.507223 4.695267 -2.233143 -1.545025 12.205706 15.193956 -0.984531 0.553331 -86.633401 -18.043283 15.112001 171.224285 -77.090656 -168.516417 -15.898002 19.649068 -5.432824 0.000001 -0.000001 0.000002 -0.000000 -0.000000 0.000000 -0.000000 -0.000000 0.000000 -8.343335 2.591412 2.691713 66.545982 18.733012 -3.399776 -6.404609 74.494596 -4.994528 24.776160 -6.120251 -1.882363 -0.000000 0.000000 0.000000 0.000000 -0.000000 0.000000 -0.000000 0.000000 0.000000 
-3.859640 14.787613 19.734384 -146.562657 78.843976 -131.971535 6.067707 3.904205 -9.152227 -39.928067 -6.659350 -19.239802 -11.776391 7.968187 48.859768 13.323159 -1.304440 -9.190694 7.455580 -9.667762 -7.878809 16.868316 6.555882 -4.193654 -20.057561 -2.368891 -47.731363 -18.378940 -16.415902 86.431929 -5.141841 -8.615639 -2.479546 -2.725303 1.069987 -7.034423 -9.121000 0.116457 16.600427 4.788545 0.597678 -7.309437 5.361986 -1.490516 3.946697 -0.633652 0.303695 -13.261495 5.588500 -0.470262 5.009138 -2.101845 -1.096652 12.314091 15.460084 -1.642350 0.857036 -87.743739 -21.183550 15.991103 172.486806 -76.424515 -170.744949 -14.705958 21.370702 -5.719079 0.000001 -0.000001 0.000002 -0.000000 0.000000 0.000000 0.000000 -0.000000 0.000000 -8.214205 1.673632 2.337469 66.817657 16.940036 -3.087705 -9.231980 75.069418 -6.950935 24.348873 -5.784061 -1.739640 0.000000 -0.000000 0.000000 0.000000 0.000000 0.000000 0.000000 -0.000000 0.000000 
-3.554955 14.820601 19.669970 -147.565946 76.964120 -133.424408 6.439869 3.794653 -9.694609 -39.420761 -6.444679 -16.285212 -12.745356 6.836323 48.418736 13.860259 -0.478589 -8.943668 7.969223 -10.267186 -8.387836 16.527754 6.135603 -4.074957 -18.227877 -2.336129 -49.044455 -17.358524 -16.128818 84.234953 -4.322711 -7.257077 -3.079080 -3.386728 3.617747 -6.209432 -8.536738 0.450067 16.764970 4.872973 0.212731 -7.256992 6.212251 -2.129441 4.200446 -0.731000 0.269871 -13.481827 5.749706 -0.478187 5.352074 -2.347783 -0.866742 12.820892 15.860763 -2.180039 0.988146 -89.021692 -24.232343 16.767910 174.014838 -75.721609 -171.579051 -16.551633 20.623153 -5.839178 0.000001 -0.000001 0.000002 -0.000000 -0.000000 -0.000000 0.000000 0.000000 0.000000 -8.422933 0.666077 2.047183 67.279876 15.468605 -3.037297 -10.754038 75.696244 -7.906727 25.099667 -5.270255 -1.576757 -0.000000 -0.000000 0.000000 -0.000000 0.000000 0.000000 -0.000000 -0.000000 0.000000 
-3.240901 14.876682 19.599700 -148.171121 75.164752 -134.270239 6.378355 3.539234 -10.029820 -38.510760 -5.510264 -14.070370 -12.718570 5.793862 48.010769 12.555744 -1.055333 -8.462974 8.135111 -11.180213 -7.944944 16.227335 5.773641 -3.927563 -16.457447 -2.299812 -50.309805 -16.914716 -15.762870 81.400304 -0.429512 -5.752776 -3.272394 -0.062052 -6.692856 -8.371324 -8.104268 0.790822 16.779631 5.103055 -0.147272 -7.303297 6.974640 -2.632389 4.076801 -0.727964 0.341774 -13.354511 5.872556 -0.400089 5.672857 -2.245886 -0.331948 12.745717 15.922884 -3.150235 0.937569 -90.115896 -26.795813 17.678148 174.722358 -75.242010 -172.766586 -16.540131 21.827764 -6.202074 0.000001 -0.000001 0.000002 -0.000000 0.000000 0.000000 0.000000 -0.000000 -0.000000 -8.182712 -0.314943 2.041672 67.419695 13.882503 -3.828239 -9.106905 76.445233 -7.006065 27.299146 -5.696867 -1.825258 -0.000000 -0.000000 0.000000 0.000000 -0.000000 0.000000 -0.000000 -0.000000 0.000000 
-2.914520 14.948649 19.514865 -148.016691 73.573953 -134.245592 5.887958 3.461893 -10.057548 -36.728615 -6.219601 -11.718913 -12.421426 6.369245 46.535249 9.863341 -2.095044 -7.795273 7.647402 -10.111570 -7.882351 15.875110 5.340313 -3.712190 -15.460989 -1.280856 -51.093964 -13.580770 -15.868285 78.170994 -0.928629 -6.597055 -2.904596 -1.081248 -4.868210 -9.284067 -7.748678 1.082548 16.580946 5.460559 -0.480016 -7.392445 7.812171 -2.981760 3.730189 -0.821275 0.301201 -12.933971 5.975213 -0.390418 5.983285 -3.054625 0.236631 12.886012 15.413378 -4.390774 0.688241 -91.030291 -28.827505 18.095931 176.885553 -75.044294 -174.278030 -18.075620 21.568311 -6.417002 0.000001 -0.000001 0.000002 -0.000000 0.000000 0.000000 -0.000000 0.000000 -0.000000 -7.835689 -1.024928 2.004639 67.258978 11.955789 -3.579652 -11.767111 76.981904 -8.335614 27.108043 -4.474723 -1.333315 0.000000 -0.000000 -0.000000 -0.000000 0.000000 0.000000 0.000000 -0.000000 -0.000000 
